<?xml version="1.0" standalone="no"?>
<!DOCTYPE svg PUBLIC "-//W3C//DTD SVG 1.1//EN" "http://www.w3.org/Graphics/SVG/1.1/DTD/svg11.dtd" >
<svg xmlns="http://www.w3.org/2000/svg">
<metadata>
Created by FontForge 20120731 at Thu Dec  1 15:35:55 2016
 By admin
</metadata>
<defs>
<font id="iconfont" horiz-adv-x="1024" >
  <font-face 
    font-family="iconfont"
    font-weight="500"
    font-stretch="normal"
    units-per-em="1024"
    panose-1="2 0 6 3 0 0 0 0 0 0"
    ascent="896"
    descent="-128"
    x-height="792"
    bbox="44 -84 997 866"
    underline-thickness="0"
    underline-position="0"
    unicode-range="U+0078-E663"
  />
<missing-glyph 
 />
    <glyph glyph-name=".notdef" 
 />
    <glyph glyph-name=".notdef" 
 />
    <glyph glyph-name=".null" horiz-adv-x="0" 
 />
    <glyph glyph-name="nonmarkingreturn" horiz-adv-x="341" 
 />
    <glyph glyph-name="x" unicode="x" horiz-adv-x="1001" 
d="M281 543q-27 -1 -53 -1h-83q-18 0 -36.5 -6t-32.5 -18.5t-23 -32t-9 -45.5v-76h912v41q0 16 -0.5 30t-0.5 18q0 13 -5 29t-17 29.5t-31.5 22.5t-49.5 9h-133v-97h-438v97zM955 310v-52q0 -23 0.5 -52t0.5 -58t-10.5 -47.5t-26 -30t-33 -16t-31.5 -4.5q-14 -1 -29.5 -0.5
t-29.5 0.5h-32l-45 128h-439l-44 -128h-29h-34q-20 0 -45 1q-25 0 -41 9.5t-25.5 23t-13.5 29.5t-4 30v167h911zM163 247q-12 0 -21 -8.5t-9 -21.5t9 -21.5t21 -8.5q13 0 22 8.5t9 21.5t-9 21.5t-22 8.5zM316 123q-8 -26 -14 -48q-5 -19 -10.5 -37t-7.5 -25t-3 -15t1 -14.5
t9.5 -10.5t21.5 -4h37h67h81h80h64h36q23 0 34 12t2 38q-5 13 -9.5 30.5t-9.5 34.5q-5 19 -11 39h-368zM336 498v228q0 11 2.5 23t10 21.5t20.5 15.5t34 6h188q31 0 51.5 -14.5t20.5 -52.5v-227h-327z" />
    <glyph glyph-name="arrowdropdown" unicode="&#xe600;" 
d="M298 470h428l-214 -214z" />
    <glyph glyph-name="arrowdropup" unicode="&#xe601;" 
d="M298 298l214 214l214 -214h-428v0z" />
    <glyph glyph-name="donotdisturbalt" unicode="&#xe602;" 
d="M512 42q140 0 241 101t101 241q0 114 -74 210l-478 -478q96 -74 210 -74zM170 384q0 -114 74 -210l478 478q-96 74 -210 74q-140 0 -241 -101t-101 -241zM512 810q176 0 301 -125t125 -301t-125 -301t-301 -125t-301 125t-125 301t125 301t301 125z" />
    <glyph glyph-name="eventnote" unicode="&#xe603;" 
d="M598 298v-84h-300v84h300zM810 86v468h-596v-468h596zM810 768q34 0 60 -26t26 -60v-596q0 -34 -26 -60t-60 -26h-596q-36 0 -61 26t-25 60v596q0 34 25 60t61 26h42v86h86v-86h340v86h86v-86h42zM726 470v-86h-428v86h428z" />
    <glyph glyph-name="erroroutline" unicode="&#xe604;" 
d="M512 42q140 0 241 101t101 241t-101 241t-241 101t-241 -101t-101 -241t101 -241t241 -101zM512 810q176 0 301 -125t125 -301t-125 -301t-301 -125t-301 125t-125 301t125 301t301 125zM470 598h84v-256h-84v256zM470 256h84v-86h-84v86z" />
    <glyph glyph-name="expandless" unicode="&#xe605;" 
d="M512 554l256 -256l-60 -60l-196 196l-196 -196l-60 60z" />
    <glyph glyph-name="expandmore" unicode="&#xe606;" 
d="M708 530l60 -60l-256 -256l-256 256l60 60l196 -196z" />
    <glyph glyph-name="helpoutline" unicode="&#xe607;" 
d="M512 640q70 0 120 -50t50 -120q0 -54 -64 -111t-64 -103h-84q0 46 20 79t44 48t44 37t20 50q0 34 -26 59t-60 25t-60 -25t-26 -59h-84q0 70 50 120t120 50v0zM512 42q140 0 241 101t101 241t-101 241t-241 101t-241 -101t-101 -241t101 -241t241 -101zM512 810
q176 0 301 -125t125 -301t-125 -301t-301 -125t-301 125t-125 301t125 301t301 125zM470 128v86h84v-86h-84z" />
    <glyph glyph-name="keyboardarrowdown" unicode="&#xe608;" 
d="M316 562l196 -196l196 196l60 -60l-256 -256l-256 256z" />
    <glyph glyph-name="infooutline" unicode="&#xe609;" 
d="M470 512v86h84v-86h-84zM512 42q140 0 241 101t101 241t-101 241t-241 101t-241 -101t-101 -241t101 -241t241 -101zM512 810q176 0 301 -125t125 -301t-125 -301t-301 -125t-301 125t-125 301t125 301t301 125zM470 170v256h84v-256h-84z" />
    <glyph glyph-name="keyboardarrowleft" unicode="&#xe60a;" 
d="M658 210l-60 -60l-256 256l256 256l60 -60l-196 -196z" />
    <glyph glyph-name="keyboardarrowright" unicode="&#xe60b;" 
d="M366 198l196 196l-196 196l60 60l256 -256l-256 -256z" />
    <glyph glyph-name="keyboardarrowup" unicode="&#xe60c;" 
d="M316 238l-60 60l256 256l256 -256l-60 -60l-196 196z" />
    <glyph glyph-name="removecircleoutline" unicode="&#xe60d;" 
d="M512 42q140 0 241 101t101 241t-101 241t-241 101t-241 -101t-101 -241t101 -241t241 -101zM512 810q176 0 301 -125t125 -301t-125 -301t-301 -125t-301 125t-125 301t125 301t301 125zM298 426h428v-84h-428v84z" />
    <glyph glyph-name="settings" unicode="&#xe60e;" 
d="M512 234q62 0 106 44t44 106t-44 106t-106 44t-106 -44t-44 -106t44 -106t106 -44zM830 342l90 -70q14 -10 4 -28l-86 -148q-8 -14 -26 -8l-106 42q-42 -30 -72 -42l-16 -112q-4 -18 -20 -18h-172q-16 0 -20 18l-16 112q-38 16 -72 42l-106 -42q-18 -6 -26 8l-86 148
q-10 18 4 28l90 70q-2 14 -2 42t2 42l-90 70q-14 10 -4 28l86 148q8 14 26 8l106 -42q42 30 72 42l16 112q4 18 20 18h172q16 0 20 -18l16 -112q38 -16 72 -42l106 42q18 6 26 -8l86 -148q10 -18 -4 -28l-90 -70q2 -14 2 -42t-2 -42z" />
    <glyph glyph-name="verticalalignbottom" unicode="&#xe60f;" 
d="M170 86h684v-86h-684v86zM682 342l-170 -172l-170 172h128v426h84v-426h128v0z" />
    <glyph glyph-name="verticalaligntop" unicode="&#xe610;" 
d="M170 768h684v-86h-684v86zM342 426l170 172l170 -172h-128v-426h-84v426h-128v0z" />
    <glyph glyph-name="acewill-remove" unicode="&#xe611;" 
d="M512 736q146 0 249 -103t103 -249t-103 -249t-249 -103t-249 103t-103 249t103 249t249 103zM512 832q-122 0 -225 -60t-163 -163t-60 -225t60 -225t163 -163t225 -60t225 60t163 163t60 225t-60 225t-163 163t-225 60v0zM255 432h512v-96h-512v96z" />
    <glyph glyph-name="acewill-edit" unicode="&#xe612;" 
d="M447 251l-68 67l452 453l68 -68zM446 251l-67 67l-34 -101zM864 448v-416h-704v704h416v96h-384q-53 0 -90.5 -37.5t-37.5 -90.5v-640q0 -53 37.5 -90.5t90.5 -37.5h640q53 0 90.5 37.5t37.5 90.5v384h-96z" />
    <glyph glyph-name="acewill-refresh" unicode="&#xe613;" 
d="M512 832l-34 -191l226 191h-192zM823 706l-71 -65q53 -49 82.5 -115.5t29.5 -141.5q0 -146 -103 -249t-249 -103t-249 103t-103 249t103 249t249 103v96q-122 0 -225 -60t-163 -163t-60 -225t60 -225t163 -163t225 -60t225 60t163 163t60 225q0 93 -36.5 176.5
t-100.5 145.5z" />
    <glyph glyph-name="acewill-add" unicode="&#xe614;" 
d="M64 432h896v-96h-896v96zM464 832h96v-896h-96v896z" />
    <glyph glyph-name="acewill-info" unicode="&#xe615;" 
d="M512 736q146 0 249 -103t103 -249t-103 -249t-249 -103t-249 103t-103 249t103 249t249 103zM512 832q-122 0 -225 -60t-163 -163t-60 -225t60 -225t163 -163t225 -60t225 60t163 163t60 225t-60 225t-163 163t-225 60v0zM464 640h96v-96h-96v96zM464 480h96v-352h-96
v352z" />
    <glyph glyph-name="acewill-arrowRight" unicode="&#xe616;" 
d="M319 -69l-68 68l453 453l68 -68zM772 384l-68 -68l-452 453l68 68z" />
    <glyph glyph-name="acewill-more" unicode="&#xe617;" 
d="M640 609q93 0 159 -66t66 -159t-66 -159t-159 -66h-256q-93 0 -159 66t-66 159t66 159t159 66h256zM640 705h-256q-88 0 -162 -43t-116.5 -117t-42.5 -161t42.5 -161t116.5 -117t162 -43h256q88 0 162 43t117 117t43 161t-43 161t-117 117t-162 43v0zM256 384
q0 -20 14 -34t34 -14t34 14t14 34t-14 34t-34 14t-34 -14t-14 -34zM464 384q0 -20 14 -34t34 -14t34 14t14 34t-14 34t-34 14t-34 -14t-14 -34zM672 384q0 -20 14 -34t34 -14t34 14t14 34t-14 34t-34 14t-34 -14t-14 -34z" />
    <glyph glyph-name="acewill-close" unicode="&#xe618;" 
d="M263 67q-14 -14 -34 -14t-34 14v0q-14 14 -14 34t14 34l566 566q14 14 34 14t34 -14v0q14 -14 14 -34t-14 -34zM195 633q-14 14 -14 34t14 34v0q14 14 34 14t34 -14l566 -566q14 -14 14 -34t-14 -34v0q-14 -14 -34 -14t-34 14z" />
    <glyph glyph-name="acewill-filter" unicode="&#xe619;" 
d="M430 512l-191 224h546l-191 -224h96l270 320h-896l270 -320h96zM594 512v-415l-164 88v327h-96v-385l356 -191v576h-96z" />
    <glyph glyph-name="acewill-menu" unicode="&#xe61a;" 
d="M64 768h896v-128h-896v128zM64 448h896v-128h-896v128zM64 128h896v-128h-896v128z" />
    <glyph glyph-name="acewill-delete" unicode="&#xe61b;" 
d="M464 832h96v-64h-96v64zM352 573h96v-445h-96v445zM577 573h96v-445h-96v445zM800 672v0v-608q0 -13 -9.5 -22.5t-22.5 -9.5h-512q-13 0 -22.5 9.5t-9.5 22.5v608h576zM960 768h-896v-96h64v-608q0 -53 37.5 -90.5t90.5 -37.5h512q53 0 90.5 37.5t37.5 90.5v608h64v96z
" />
    <glyph glyph-name="iconacewill08" unicode="&#xe61c;" 
d="M938 48l1 1l-177 176q72 100 72 223q0 104 -51.5 193t-140.5 140.5t-193.5 51.5t-193 -51.5t-140 -140.5t-51.5 -193.5t51.5 -193t140 -140t193.5 -51.5q122 0 223 71l176 -176q19 -20 46 -20t45.5 18.5t18.5 45.5t-20 46zM448.5 159q-119.5 0 -204 84.5t-84.5 204
t84.5 204.5t204 85t204.5 -85t85 -204.5t-85 -204t-204.5 -84.5z" />
    <glyph glyph-name="acewill-add2" unicode="&#xe61d;" 
d="M768 832h-512q-53 0 -90.5 -37.5t-37.5 -90.5v-640q0 -53 37.5 -90.5t90.5 -37.5h384l256 257v511q0 53 -37.5 90.5t-90.5 37.5zM608 32h-352q-13 0 -22.5 9.5t-9.5 22.5v640q0 13 9.5 22.5t22.5 9.5h512q13 0 22.5 -9.5t9.5 -22.5v-479zM320 447h384v-96h-384v96z
M464 591h96v-384h-96v384z" />
    <glyph glyph-name="acewill-save" unicode="&#xe61e;" 
d="M848 736q7 0 11.5 -4.5t4.5 -11.5v-672q0 -7 -4.5 -11.5t-11.5 -4.5h-672q-7 0 -11.5 4.5t-4.5 11.5v672q0 7 4.5 11.5t11.5 4.5h672zM848 832h-672q-46 0 -79 -33t-33 -79v-672q0 -46 33 -79t79 -33h672q46 0 79 33t33 79v672q0 46 -33 79t-79 33v0zM666 736q6 0 6 -6
v-308q0 -6 -6 -6h-308q-6 0 -6 6v308q0 6 6 6h-101q0 -1 -0.5 -3t-0.5 -3v-308q0 -42 30 -72t72 -30h308q42 0 72 30t30 72v308q0 1 -0.5 3t-0.5 3h-101z" />
    <glyph glyph-name="acewill-colSelection" unicode="&#xe61f;" 
d="M338 736q6 0 10 -4t4 -10v-164q0 -6 -4 -10t-10 -4h-164q-6 0 -10 4t-4 10v164q0 6 4 10t10 4h164zM338 832h-164q-46 0 -78 -32t-32 -78v-164q0 -46 32 -78t78 -32h164q46 0 78 32t32 78v164q0 46 -32 78t-78 32v0zM338 224q6 0 10 -4t4 -10v-164q0 -6 -4 -10t-10 -4
h-164q-6 0 -10 4t-4 10v164q0 6 4 10t10 4h164zM338 320h-164q-46 0 -78 -32t-32 -78v-164q0 -46 32 -78t78 -32h164q46 0 78 32t32 78v164q0 46 -32 78t-78 32v0zM960 768q0 -20 -14.5 -34t-34.5 -14h-351q-20 0 -34 14t-14 34v0q0 20 14 34t34 14h351q20 0 34.5 -14
t14.5 -34v0zM960 512q0 -20 -14.5 -34t-34.5 -14h-351q-20 0 -34 14t-14 34v0q0 20 14 34t34 14h351q20 0 34.5 -14t14.5 -34v0zM960 256q0 -20 -14.5 -34t-34.5 -14h-351q-20 0 -34 14t-14 34v0q0 20 14 34t34 14h351q20 0 34.5 -14t14.5 -34v0zM960 0q0 -20 -14.5 -34
t-34.5 -14h-351q-20 0 -34 14t-14 34v0q0 20 14 34t34 14h351q20 0 34.5 -14t14.5 -34v0z" />
    <glyph glyph-name="acewill-travelapply" unicode="&#xe620;" 
d="M189 32q-13 0 -22.5 9.5t-9.5 22.5v640q0 13 9.5 22.5t22.5 9.5h638v96h-638q-53 0 -90.5 -37.5t-37.5 -90.5v-640q0 -53 37.5 -90.5t90.5 -37.5h638v96h-638zM877 583l-281 -136l-156 129l-61 -74l122 -101l-100 -49h-148v-96h170l496 241h38v86h-80z" />
    <glyph glyph-name="acewill-duplicate" unicode="&#xe621;" 
d="M671 736v-512h-512v512h512zM679 832h-528q-36 0 -62 -26t-26 -62v-528q0 -36 26 -62t62 -26h528q37 0 62.5 26t25.5 62v528q0 36 -25.5 62t-62.5 26v0zM871 640h-29v-88h29v-528h-528v29h-88v-29q0 -36 26 -62t62 -26h528q37 0 62.5 26t25.5 62v528q0 36 -25.5 62
t-62.5 26z" />
    <glyph glyph-name="acewill-travelback" unicode="&#xe622;" 
d="M194 34q-13 0 -22.5 9.5t-9.5 22.5v640q0 13 9.5 22.5t22.5 9.5h637v96h-637q-53 0 -90.5 -37.5t-37.5 -90.5v-640q0 -53 37.5 -90.5t90.5 -37.5h637v96h-637zM811 354l-100 49l123 101l-62 74l-155 -129l-281 136h-81v-86h39l495 -241h170v96h-148z" />
    <glyph glyph-name="acewill-leaveback" unicode="&#xe623;" 
d="M543 416v224h-96v-320h256v96h-160zM767 128h190v-96h-190v96zM863 384q0 -104 -58 -192h110q44 92 44 192q0 159 -99.5 281t-251.5 156v-99q111 -32 183 -125.5t72 -212.5zM703 89q-88 -57 -192 -57q-96 0 -177 47t-128 128.5t-47 176.5t47 176.5t128 128.5t177 47h0.5
h0.5v96h-0.5h-0.5q-91 0 -174 -35.5t-143 -95.5t-95.5 -143t-35.5 -174t35.5 -174t95.5 -143t143 -95.5t174 -35.5q100 0 192 44v109z" />
    <glyph glyph-name="acewill-adduser" unicode="&#xe624;" 
d="M431 734q53 0 90.5 -37.5t37.5 -90.5t-37.5 -90.5t-90.5 -37.5t-90.5 37.5t-37.5 90.5t37.5 90.5t90.5 37.5zM431 830q-93 0 -158.5 -65.5t-65.5 -158.5t65.5 -158.5t158 -65.5t158.5 65.5t66 158.5t-66 158.5t-158 65.5v0zM430.5 222q85.5 0 157 -53t106.5 -139h-527
q35 86 106.5 139t157 53zM431 318q-99 0 -184.5 -51t-138.5 -139t-61 -194h768q-9 106 -62 194t-138 139t-184 51v0zM959 398h-112v112h-96v-112h-112v-96h112v-112h96v112h112v96z" />
    <glyph glyph-name="acewill-figure" unicode="&#xe625;" 
d="M640 576q0 -27 19 -45.5t45.5 -18.5t45 18.5t18.5 45.5t-18.5 45.5t-45 18.5t-45.5 -18.5t-19 -45.5zM832 736q14 0 23 -9.5t9 -22.5v-640q0 -13 -9 -22.5t-23 -9.5h-640q-13 0 -22.5 9.5t-9.5 22.5v640q0 13 9.5 22.5t22.5 9.5h640zM832 832h-640q-53 0 -90.5 -37.5
t-37.5 -90.5v-640q0 -53 37.5 -90.5t90.5 -37.5h640q53 0 90.5 37.5t37.5 90.5v640q0 53 -37.5 90.5t-90.5 37.5v0zM192 128h512q-2 11 -7 29.5t-21 71.5t-32.5 101.5t-40.5 107.5t-48 101.5t-52.5 71.5t-54.5 29q-36 0 -75.5 -52.5t-70 -128t-56.5 -151t-40 -127.5z" />
    <glyph glyph-name="acewill-table" unicode="&#xe626;" 
d="M831 737q13 0 22.5 -9.5t9.5 -22.5v-640q0 -14 -9.5 -23t-22.5 -9h-640q-14 0 -23 9t-9 23v640q0 13 9 22.5t23 9.5h640zM831 833h-640q-53 0 -90.5 -37.5t-37.5 -90.5v-640q0 -53 37.5 -90.5t90.5 -37.5h640q53 0 90.5 37.5t37.5 90.5v640q0 53 -37.5 90.5t-90.5 37.5v0
zM863 481v96h-299v160h-96v-160h-309v-96h309v-192h-309v-96h309v-160h96v160h299v96h-299v192h299z" />
    <glyph glyph-name="acewill-overtime" unicode="&#xe627;" 
d="M699 704l99 -192h-586l93 192h394zM757 800h-512l-186 -384h896zM555 96v320h-96v-320h-144v-96h384v96h-144zM815 297v119h-96v-119q-16 -19 -16 -41q0 -26 18.5 -45t45 -19t45.5 19t19 45q0 23 -16 41z" />
    <glyph glyph-name="acewill-leaveapply" unicode="&#xe628;" 
d="M447 640h96v-320h-96v320zM447 416h256v-96h-256v96zM607 821v-99q112 -31 184 -125t72 -213q0 -95 -47.5 -176.5t-128.5 -128.5t-176.5 -47t-176.5 47t-128 128.5t-47 176.5t47 176.5t128 128.5t177 47v96q-91 0 -174 -35.5t-143 -95.5t-95.5 -143t-35.5 -174t35.5 -174
t95.5 -143t143 -95.5t174 -35.5t174 35.5t143 95.5t95.5 143t35.5 174q0 159 -100 281.5t-252 155.5z" />
    <glyph glyph-name="acewill-chart" unicode="&#xe629;" 
d="M511 835q-91 0 -174 -35.5t-143 -95.5t-95.5 -143t-35.5 -174t35.5 -174t95.5 -143t143 -95.5t174 -35.5t174 35.5t143 95.5t95.5 143t35.5 174t-35.5 174t-95.5 143t-143 95.5t-174 35.5zM510.5 35q-95.5 0 -176.5 47t-128 128t-47 177q0 75 31 145l321 -145l-45 349
q25 3 45 3q95 0 176 -47.5t128.5 -128.5t47.5 -176.5t-47.5 -176.5t-128.5 -128t-176.5 -47z" />
    <glyph glyph-name="acewill-apply" unicode="&#xe62a;" 
d="M735 304l-176 121v184h-96v-173l-176 -135l58 -76l159 121l177 -121zM511 726l288 -144v-394l-288 -144l-288 144v394zM511 833l-384 -192v-512l384 -192l384 192v512z" />
    <glyph glyph-name="acewill-shelve" unicode="&#xe62b;" 
d="M672 316q0 -38 -27 -64.5t-64 -26.5h-138q-37 0 -64 26.5t-27 64.5v137q0 38 27 65t64 27h138q37 0 64 -27t27 -65v-137v0zM643 59q-62 -24 -127 -24q-95 0 -176.5 47t-128.5 128t-47 176.5t47 176.5t128.5 128.5t176.5 47.5t176.5 -47.5t128.5 -128.5t47 -176
q0 -76 -30.5 -143t-84.5 -117l58 -77q72 63 112.5 150.5t40.5 186.5q0 91 -35.5 174t-95.5 143t-143 95.5t-174 35.5t-174 -35.5t-143 -95.5t-95.5 -143t-35.5 -174.5t35.5 -174t95.5 -142.5t143 -95.5t174 -35.5q93 0 177 36z" />
    <glyph glyph-name="acewill-calculate" unicode="&#xe62c;" 
d="M831 832h-640q-53 0 -90.5 -37.5t-37.5 -90.5v-640h96v272h304v-304h-272h-1v-96h1h640q53 0 90.5 37.5t37.5 90.5v640q0 53 -37.5 90.5t-90.5 37.5zM159 432v272q0 13 9 22.5t23 9.5h272v-304h-304zM863 432h-304v304h272q13 0 22.5 -9.5t9.5 -22.5v-272zM290 672h57
v-192h-57v192zM223 605h192v-58h-192v58zM607 605h192v-58h-192v58zM607 285h192v-58h-192v58zM607 157h192v-58h-192v58z" />
    <glyph glyph-name="acewillimport01" unicode="&#xe62d;" 
d="M832 736q13 0 22.5 -9.5t9.5 -22.5v-640q0 -13 -9.5 -22.5t-22.5 -9.5h-640q-13 0 -22.5 9.5t-9.5 22.5v640q0 13 9.5 22.5t22.5 9.5h640zM832 832h-640q-53 0 -90.5 -37.5t-37.5 -90.5v-640q0 -53 37.5 -90.5t90.5 -37.5h640q53 0 90.5 37.5t37.5 90.5v640
q0 53 -37.5 90.5t-90.5 37.5v0zM447 563v90l-190 -276l95 40l-1 -302h96v448v0zM577 205v-90l190 276l-95 -40l1 302h-96v-448v0z" />
    <glyph glyph-name="acewill-information" unicode="&#xe62e;" 
d="M512 573q22 0 37.5 -13.5t15.5 -33t-15.5 -33t-37.5 -13.5t-38 13.5t-16 33t16 33t38 13.5zM512 669q-62 0 -106 -42t-44 -100.5t44 -100.5t106 -42t105.5 42t43.5 100.5t-43.5 100.5t-105.5 42v0zM511.5 248q68.5 0 115.5 -52h-231q47 52 115.5 52zM512 344
q-101 0 -174 -70.5t-82 -173.5h512q-9 103 -82.5 173.5t-173.5 70.5v0zM417 832h191v-96h-191v96zM786 832h-82v-96h82q2 0 5 -3.5t6 -11t3 -17.5v-640q0 -9 -3 -17t-6 -11t-5 -4h-548q-2 1 -5 4t-6 11t-3 17v640q0 10 3 17.5t6 11t4 3.5h84v96h-84q-45 0 -77 -37.5
t-32 -90.5v-640q0 -53 32 -90.5t77 -37.5h549q45 0 77.5 37.5t32.5 90.5v640q0 53 -32.5 90.5t-77.5 37.5z" />
    <glyph glyph-name="acewill-tel" unicode="&#xe62f;" 
d="M511 736q95 0 176.5 -47t128.5 -128.5t47 -176.5t-47 -176.5t-128.5 -128.5t-176.5 -47t-176.5 47t-128.5 128.5t-47 176.5t47 176.5t128.5 128.5t176.5 47zM511 832q-91 0 -174 -35.5t-143 -95.5t-95.5 -143t-35.5 -174t35.5 -174t95.5 -143t143 -95.5t174 -35.5
t174 35.5t143 95.5t95.5 143t35.5 174t-35.5 174t-95.5 143t-143 95.5t-174 35.5v0zM675 155q3 2 12.5 9t13.5 10t11.5 10.5t10 12.5t5 13.5t0 16t-8 17.5t-16.5 21q-19 20 -33.5 29t-27.5 7.5t-21 -5.5t-22 -15q-4 -3 -6 -4q-27 -21 -105 80.5t-51 121.5q2 2 6 5
q14 10 20 16.5t11 18.5t0 28.5t-20 39.5q-7 13 -15.5 21t-15.5 12.5t-15.5 4.5t-14 -1t-15 -6.5t-13.5 -8.5t-13 -10t-12 -9q-14 -11 -17 -38t5 -63.5t32 -85t61 -96.5q72 -93 148 -133.5t106 -18.5v0z" />
    <glyph glyph-name="acewill-positioning" unicode="&#xe630;" 
d="M512 736q93 0 158.5 -65t65.5 -158q0 -59 -69.5 -181.5t-154.5 -239.5q-84 118 -154 242t-70 182q0 91 66 155.5t158 64.5zM512 832q-87 0 -160.5 -42.5t-116.5 -115t-43 -158.5q0 -49 32.5 -126.5t79 -154t93.5 -145t80 -111.5t35 -43t35 42t80 110.5t93 144t79 152.5
t33 127v4q0 86 -42.5 158.5t-116.5 115t-161 42.5v0zM512.5 544q13.5 0 22.5 -9.5t9 -22.5t-9 -22.5t-22.5 -9.5t-23 9.5t-9.5 22.5t9.5 22.5t23 9.5zM512 640q-53 0 -90.5 -37.5t-37.5 -90.5t37.5 -90.5t90.5 -37.5t90.5 37.5t37.5 90.5t-37.5 90.5t-90.5 37.5v0z" />
    <glyph glyph-name="acewill-education" unicode="&#xe631;" 
d="M511 737q12 0 18 -3l293 -189l-293 -189q-6 -3 -18 -3t-18 3l-293 189l293 189q6 3 18 3zM511 833q-41 0 -70 -19l-349 -224q-29 -19 -29 -45t29 -45l349 -224q29 -19 70 -19t70 19l349 224q29 19 29 45t-29 45l-349 224q-29 19 -70 19v0zM744 449v-275l-233 -129
l-233 129v275h-2q-50 0 -85 42v-376l320 -178l320 178v378q-35 -44 -87 -44z" />
    <glyph glyph-name="acewill-submit" unicode="&#xe632;" 
d="M319 609h384v-96h-384v96zM319 353h256v-96h-256v96zM839 -84l-81 51l155 245l81 -51zM879 -7l-40 -77l-172 89l40 77zM629 64h-393q-8 0 -14.5 6.5t-6.5 16.5v594q0 10 6.5 16.5t14.5 6.5h549q9 0 15 -6.5t6 -16.5v-425h89v425q0 49 -32.5 84t-77.5 35h-549
q-45 0 -77 -35t-32 -84v-594q0 -49 32 -84t77 -35h393v96z" />
    <glyph glyph-name="acewill-empInfo" unicode="&#xe633;" 
d="M320 560h256v-96h-256v96zM448 304h256v-96h-256v96zM128 64v640q0 53 32 90.5t77 37.5h531l-64 -96h-467q-11 0 -19 -9.5t-8 -22.5v-640q0 -13 8 -22.5t19 -9.5h549q11 0 19 9.5t8 22.5v575v0l83 1v-0.5v-0.5v-575q0 -53 -32.5 -90.5t-77.5 -37.5h-549q-45 0 -77 37.5
t-32 90.5z" />
    <glyph glyph-name="icon24" unicode="&#xe634;" 
d="M252 448q0 -27 19 -45.5t45.5 -18.5t45 18.5t18.5 45.5t-18.5 45.5t-45 18.5t-45.5 -18.5t-19 -45.5zM444 448q0 -27 19 -45.5t45.5 -18.5t45 18.5t18.5 45.5t-18.5 45.5t-45 18.5t-45.5 -18.5t-19 -45.5zM636 448q0 -27 19 -45.5t45.5 -18.5t45 18.5t18.5 45.5
t-18.5 45.5t-45 18.5t-45.5 -18.5t-19 -45.5zM831 816h-640q-53 0 -90.5 -37.5t-37.5 -90.5v-448q0 -53 37.5 -90.5t90.5 -37.5h323l112 -160h92l111 160h2q53 0 90.5 37.5t37.5 90.5v448q0 53 -37.5 90.5t-90.5 37.5zM863 240q0 -13 -9 -22.5t-23 -9.5h-64l-95 -150
l-97 150h-384q-13 0 -22.5 9.5t-9.5 22.5v448q0 13 9.5 22.5t22.5 9.5h640q14 0 23 -9.5t9 -22.5v-448z" />
    <glyph glyph-name="acewill-experience" unicode="&#xe635;" 
d="M830 640h-64v90q0 42 -30 72t-72 30h-308q-42 0 -72 -30t-30 -72v-90h-64q-53 0 -90.5 -37.5t-37.5 -90.5v-448q0 -53 37.5 -90.5t90.5 -37.5h640q53 0 90.5 37.5t37.5 90.5v448q0 53 -37.5 90.5t-90.5 37.5zM862 64q0 -13 -9.5 -22.5t-22.5 -9.5h-640q-13 0 -22.5 9.5
t-9.5 22.5v184h269q13 -22 35 -35t48 -13t48 13t35 35h269v-184zM862 344h-269q-13 22 -35 35t-48 13t-48 -13t-35 -35h-269v168q0 13 9.5 22.5t22.5 9.5h64q40 0 68 28t28 68v90q0 6 6 6h308q6 0 6 -6v-90q0 -40 28 -68t68 -28h64q13 0 22.5 -9.5t9.5 -22.5v-168z" />
    <glyph glyph-name="acewill-export" unicode="&#xe636;" 
d="M840 128q0 -14 -9 -23t-21 -9h-594q-13 0 -21.5 9t-8.5 23v222h-89v-222q0 -53 34.5 -90.5t83.5 -37.5h595q49 0 84 37.5t35 90.5v222h-90v-222h1zM464 705h96v-448h-96v448zM476 682l55 79l211 -144l-54 -80zM342 529l-58 76l203 156l58 -76zM487 761h44l-18 -56z" />
    <glyph glyph-name="acewill-workclass" unicode="&#xe637;" 
d="M445 725l36 -351l5 -55l336 -153q-52 -64 -128.5 -99.5t-163.5 -35.5q-100 0 -185.5 47t-135 128t-49.5 177q0 123 80.5 218.5t204.5 123.5zM530 831q-95 0 -181 -35.5t-148.5 -95.5t-99.5 -143t-37 -174t37 -174t99.5 -143t148.5 -95.5t181 -35.5q143 0 259.5 75.5
t170.5 198.5l-384 175zM576 785q0 -20 14 -34t34 -14t34 14t14 34t-14 34t-34 14t-34 -14t-14 -34zM736 689q0 -20 14 -34t34 -14t34 14t14 34t-14 34t-34 14t-34 -14t-14 -34zM832 529q0 -20 14 -34t34 -14t34 14t14 34t-14 34t-34 14t-34 -14t-14 -34zM864 337
q0 -20 14 -34t34 -14t34 14t14 34t-14 34t-34 14t-34 -14t-14 -34z" />
    <glyph glyph-name="icon27" unicode="&#xe65f;" 
d="M320 224h256v-96h-256v96zM320 417h384v-96h-384v96zM630 673h-392q-9 0 -15 -6.5t-6 -16.5v-594q0 -10 6 -16.5t15 -6.5h548q9 0 15 6.5t6 16.5v425h89v-425q0 -49 -32 -84t-78 -35h-548q-46 0 -78 35t-32 84v594q0 49 32 84t78 35h392v-96zM776 484l-74 60l184 225
l74 -61zM826 557l-49 -73l-161 107l48 73z" />
    <glyph glyph-name="icon28" unicode="&#xe660;" 
d="M320 224h256v-96h-256v96zM320 417h384v-96h-384v96zM630 673h-392q-9 0 -15 -6.5t-6 -16.5v-594q0 -10 6 -16.5t15 -6.5h548q9 0 15 6.5t6 16.5v425h89v-425q0 -49 -32 -84t-78 -35h-548q-46 0 -78 35t-32 84v594q0 49 32 84t78 35h392v-96zM666 715l53 53l177 -177
l-53 -53zM719 538l-53 53l177 177l53 -53z" />
    <glyph glyph-name="icon29" unicode="&#xe661;" 
d="M511 58q-89 0 -164 44t-119 119t-44 164t44 164t119 119t164 44h0.5h0.5v89h-0.5h-0.5q-113 0 -209 -55.5t-151.5 -151.5t-55.5 -209t55.5 -209t151.5 -151.5t209 -55.5t209 55.5t151.5 151.5t55.5 209h-89q0 -89 -44 -164t-119 -119t-164 -44zM512 642l164 112l-164 112
v-224z" />
    <glyph glyph-name="icon30" unicode="&#xe662;" 
d="M827 320q-23 -110 -111 -183t-203 -73t-203 73t-111 183l-86 41l-10 -41h-1l0.5 -0.5l0.5 -0.5l-58 -221l85 -22l27 95q56 -93 150 -148t206 -55q155 0 271 100.5t140 251.5h-97zM940 453l57 221l-85 22l-27 -95q-55 93 -149.5 148t-206.5 55q-154 0 -270.5 -100.5
t-139.5 -251.5h97q22 111 110 183.5t203 72.5t203 -72.5t111 -183.5v0l86 -40l11 40v0v1z" />
    <glyph glyph-name="acewill-save2" unicode="&#xe663;" 
d="M848 736q7 0 11.5 -4.5t4.5 -11.5v-672q0 -7 -4.5 -11.5t-11.5 -4.5h-672q-7 0 -11.5 4.5t-4.5 11.5v672q0 7 4.5 11.5t11.5 4.5h672zM848 832h-672q-46 0 -79 -33t-33 -79v-672q0 -46 33 -79t79 -33h672q46 0 79 33t33 79v672q0 46 -33 79t-79 33zM192 576h320v-64h-320
v64zM320 704h64v-320h-64v320zM418 64l-226 226l45 46l227 -227zM192 109l226 227l46 -46l-227 -226zM576 576h256v-64h-256v64zM576 320h256v-64h-256v64zM576 192h256v-64h-256v64z" />
  </font>
</defs>
</svg>
